PathFileType	4	(X/Y/Z)	/Users/niels/Desktop/University/Third Semester/Perception and Action/Exam/Gymnastics Motion Tracking/Code for Gym Tracking/Analyzed Data/Webcam_Backflip/id7_2_trajectory_Sports2D/id7_2_trajectory_Sports2D_px_person00.trc
DataRate	CameraRate	NumFrames	NumMarkers	Units	OrigDataRate	OrigDataStartFrame	OrigNumFrames
29.75	29.75	10	22	m	29.75	15	120
Frame#	Time	Hip			RHip			RKnee			RAnkle			RBigToe			RSmallToe			RHeel			LHip			LKnee			LAnkle			LBigToe			LSmallToe			LHeel			Neck			Head			Nose			RShoulder			RElbow			RWrist			LShoulder			LElbow			LWrist		
		X1	Y1	Z1	X2	Y2	Z2	X3	Y3	Z3	X4	Y4	Z4	X5	Y5	Z5	X6	Y6	Z6	X7	Y7	Z7	X8	Y8	Z8	X9	Y9	Z9	X10	Y10	Z10	X11	Y11	Z11	X12	Y12	Z12	X13	Y13	Z13	X14	Y14	Z14	X15	Y15	Z15	X16	Y16	Z16	X17	Y17	Z17	X18	Y18	Z18	X19	Y19	Z19	X20	Y20	Z20	X21	Y21	Z21	X22	Y22	Z22
15	0.5042016806722689	0.8669692328596642	-0.46788713649255104	0.0	0.8581871951800895	-0.464547736602316	0.0	0.8887589597691186	-0.6954364991533237	0.0	0.8706390601505779	-0.9179407084769625	0.0	0.9696883686809119	-0.9522952690153362	0.0	0.9479097153620286	-0.9640175231066856	0.0	0.8498855592521405	-0.9509605967494488	0.0	0.8865026535417826	-0.4677752617261636	0.0	0.8967116053960343	-0.6873510215265864	0.0	0.880008241014981	-0.8854441113112925	0.0	0.9679329852556906	-0.9102060271664055	0.0	0.9588075681520773	-0.9037484686108885	0.0	0.861365174374449	-0.9133246669023208	0.0	0.9159433975615247	-0.1464120978620878	0.0	0.9565105121178519	-0.004887908900553968	0.0	0.9689220638321371	-0.08884131672968625	0.0	0.8788661863487126	-0.1889628937709687	0.0	1.030933382966937	-0.23428591412890357	0.0	1.1897363852939051	-0.20871744729653424	0.0	0.9365781516884685	-0.19740722673680897	0.0	1.00135330240083	-0.3402636403794975	0.0	1.1096352321136698	-0.41547207983129314	0.0
16	0.5378151260504201	0.8706495819344602	-0.4672044948707736	0.0	0.8607171096129136	-0.46411947916851787	0.0	0.8878600712836124	-0.6964843068188719	0.0	0.8700913100753594	-0.9189474673708528	0.0	0.9687838347768436	-0.9527201823061895	0.0	0.9466338146492109	-0.9656138851117212	0.0	0.8494951439412675	-0.9523873543508435	0.0	0.8886074356685967	-0.466791434837505	0.0	0.8953387622077557	-0.6876608687292813	0.0	0.8798947499285489	-0.8851127256516554	0.0	0.9678389031034133	-0.9086781569199013	0.0	0.9579211416851252	-0.9024745833812181	0.0	0.8622186347945541	-0.9150922968003635	0.0	0.9138984351742873	-0.1442931796201469	0.0	0.9520379891510669	-0.002393925611944911	0.0	0.965645225087185	-0.08725559459039793	0.0	0.8766594246235051	-0.18544952998497272	0.0	1.0375389566729265	-0.21145883411231606	0.0	1.1943843833050372	-0.1681718006144433	0.0	0.9374199411247012	-0.19576769728007634	0.0	1.0045612848549101	-0.33734457644889043	0.0	1.1158877737502626	-0.4037330244099272	0.0
17	0.5714285714285714	0.8738787180464019	-0.4667879050947341	0.0	0.8632257466111479	-0.4639570893336261	0.0	0.887359031333822	-0.6972525873865679	0.0	0.8697440072027408	-0.919873012409895	0.0	0.968205877234032	-0.9531694732091266	0.0	0.9459175293884777	-0.966989778597989	0.0	0.8493151999543206	-0.9533359142871549	0.0	0.8910149275410679	-0.4659082232663512	0.0	0.8941749285250118	-0.6875763103186932	0.0	0.8797379226881329	-0.8849796032048824	0.0	0.9681922607856881	-0.9073627648505518	0.0	0.9571691103205376	-0.9012106549828646	0.0	0.8617578743669608	-0.9164515922719494	0.0	0.9131145197259749	-0.1428186046367103	0.0	0.9493089154215274	-0.00103534173766706	0.0	0.963698459059118	-0.08637080698893743	0.0	0.8756126738224761	-0.18230059479971844	0.0	1.041360403286936	-0.19137727912352576	0.0	1.1937393859720247	-0.13372470434513653	0.0	0.9384172702030448	-0.19461227310431592	0.0	1.006431429935574	-0.3347367608106366	0.0	1.1207704843808408	-0.39308862655881244	0.0
18	0.6050420168067226	0.8765810232555576	-0.46636513244144123	0.0	0.8657432318931848	-0.46370047273385845	0.0	0.8871809270555935	-0.6974750519172074	0.0	0.8695459542617556	-0.9204177943246067	0.0	0.9681444528901816	-0.9536484723558214	0.0	0.9460577117226789	-0.9680063525848241	0.0	0.8494212865654592	-0.9535957266998285	0.0	0.8937956936431607	-0.46514746874915863	0.0	0.8934567483891436	-0.6869137224364309	0.0	0.8798363667142837	-0.8847445443298199	0.0	0.9689616515136641	-0.9065579961716077	0.0	0.9567301877088343	-0.9001445778775302	0.0	0.860602972047647	-0.9169933310831659	0.0	0.913436762644432	-0.1417353306533027	0.0	0.9481259719603481	-0.00047798529027251425	0.0	0.9628702845375394	-0.08574587597323946	0.0	0.8754846256605439	-0.17944720214220586	0.0	1.043327114543339	-0.17427099319959843	0.0	1.1893726420809205	-0.10549390395326069	0.0	0.9395429329962672	-0.19405786590726537	0.0	1.007320438077344	-0.3323223099264606	0.0	1.1244172998316497	-0.3838691340915124	0.0
19	0.6386554621848739	0.8787180875648025	-0.46581709039840397	0.0	0.868212363056833	-0.4631895383808739	0.0	0.8871909394029257	-0.6971344858821293	0.0	0.8694598666265775	-0.9204530043008755	0.0	0.9685448850044331	-0.9540010189254972	0.0	0.9470389873563514	-0.9685497709592717	0.0	0.8498124180037226	-0.9532059143996026	0.0	0.8965709894913197	-0.4645387975573367	0.0	0.893211064740453	-0.6858666626933821	0.0	0.8802825454351038	-0.8843695598350555	0.0	0.9700002466795228	-0.9065571138661729	0.0	0.9566639996415801	-0.8995949776417878	0.0	0.8593455554281956	-0.916807596128585	0.0	0.9144091806684469	-0.14081426494246718	0.0	0.9482407875929576	-0.00030362302465272863	0.0	0.9627550260545439	-0.08518259128954217	0.0	0.8760091034939693	-0.176933304694456	0.0	1.044257401621124	-0.1602736538998913	0.0	1.1829803096377127	-0.0830471300525523	0.0	0.9404071846425934	-0.19380332137306203	0.0	1.007404364713983	-0.3300536321618872	0.0	1.1265419218684825	-0.37627925959847147	0.0
20	0.6722689075630252	0.8803646891267501	-0.46524718910761564	0.0	0.8705680863885568	-0.46250747085313854	0.0	0.8872737048641421	-0.6964158377961464	0.0	0.8694762724868915	-0.92004684114084	0.0	0.9692883020997862	-0.9540435005206855	0.0	0.9486425377105985	-0.96853871841931	0.0	0.8503935388840393	-0.9524074411671605	0.0	0.8988674844506102	-0.46412136540159954	0.0	0.8933602993172722	-0.6848363481423883	0.0	0.8809729519618418	-0.8839694882944369	0.0	0.9711141041301088	-0.9074160013375521	0.0	0.9569439366711207	-0.8997351534251158	0.0	0.8582739296579865	-0.9162301363613876	0.0	0.9155286181990226	-0.13993831914211996	0.0	0.949401775603631	-0.0002585981183452742	0.0	0.9630135907850557	-0.0846918051187386	0.0	0.8769458642274629	-0.17478278756274399	0.0	1.0445565355522923	-0.1493670531825942	0.0	1.1760566914076482	-0.06563555545430648	0.0	0.9406269764742577	-0.19339941209407188	0.0	1.0067904976382025	-0.32794652316016004	0.0	1.126952732742214	-0.37028994529406817	0.0
21	0.7058823529411764	0.8816439638112283	-0.46483629671702953	0.0	0.8727758042408815	-0.4618324522239	0.0	0.8873966234583042	-0.6955547222818181	0.0	0.8696085891994485	-0.9193847339368337	0.0	0.9702252905213549	-0.9537470303568818	0.0	0.950455929216159	-0.9680269274623098	0.0	0.8510202374093806	-0.9514603345018005	0.0	0.9003798832863612	-0.46390201237536777	0.0	0.8937949360346702	-0.6841050467758327	0.0	0.881683480404333	-0.8835626129082018	0.0	0.9720456594582839	-0.9088308130044158	0.0	0.9573989972836635	-0.9003887270657729	0.0	0.8573527134511669	-0.9154638957338243	0.0	0.9164725498349942	-0.13911752957625695	0.0	0.9512882094528754	-0.00028900115264060257	0.0	0.9634910810144502	-0.08438021916927038	0.0	0.8781279954232984	-0.17300307150244623	0.0	1.044497055565054	-0.14121086168960134	0.0	1.1698247099616976	-0.052387242559243645	0.0	0.9400759529601456	-0.19257543372841043	0.0	1.0056220363981634	-0.32606706885795445	0.0	1.1258582712012286	-0.3657356728940531	0.0
22	0.7394957983193277	0.8826417663288869	-0.4646412103537857	0.0	0.8748148339569117	-0.4612582945356259	0.0	0.8875786690322419	-0.694695645589581	0.0	0.8698557458216396	-0.9186211923173893	0.0	0.9711417976746816	-0.953258400162615	0.0	0.9519852389819804	-0.9672149225315602	0.0	0.8515634877585566	-0.950502580999654	0.0	0.9010506021157889	-0.4638149899253535	0.0	0.894388998226241	-0.6836677296673542	0.0	0.8822104798068118	-0.8830220021413396	0.0	0.9725823285844247	-0.9102766218076194	0.0	0.957773055108508	-0.901146760774014	0.0	0.8565047726148477	-0.9145186199612307	0.0	0.9171449219117468	-0.1384255786220971	0.0	0.9535192963842822	-0.0003942269754566113	0.0	0.9641595155452098	-0.08432726765457677	0.0	0.8794151665250524	-0.17163159350948254	0.0	1.044453300392308	-0.13523317901431484	0.0	1.1651177192240194	-0.042483924995650166	0.0	0.9389359971736251	-0.19135974229558095	0.0	1.0040845358167543	-0.3245246669618877	0.0	1.1237325170217054	-0.3624604380678754	0.0
23	0.7731092436974789	0.8834011952634166	-0.4645736343441491	0.0	0.8766425708809162	-0.4607924232867944	0.0	0.8878302421673681	-0.6939079376747148	0.0	0.8701647513561709	-0.917832356001772	0.0	0.9718404707408178	-0.9527754575174104	0.0	0.9529160252594328	-0.966340996904596	0.0	0.8519338516622696	-0.9495713661598562	0.0	0.9010698440305546	-0.4637653583240455	0.0	0.8950031265080625	-0.6833939078893513	0.0	0.8824906956834527	-0.8822523917680286	0.0	0.972695467820693	-0.9113205996185216	0.0	0.9578836775592445	-0.9016740836769516	0.0	0.8557847455788307	-0.9134284923414574	0.0	0.9176158963804149	-0.13792246672138112	0.0	0.9557484450903815	-0.0005515989547007187	0.0	0.9649878472397837	-0.08451432544485392	0.0	0.880641750860753	-0.170702910989268	0.0	1.0446760935239678	-0.13095842093985233	0.0	1.1621589388929803	-0.03537988383941318	0.0	0.9375936805156998	-0.18996952232810144	0.0	1.0023827314882123	-0.3234559651020928	0.0	1.1211010655270637	-0.36034671628199244	0.0
24	0.8067226890756303	0.8839516083058226	-0.4645285333456593	0.0	0.8782297119568655	-0.46043674416697833	0.0	0.8881487955746028	-0.6932790226933561	0.0	0.8704529219729048	-0.9171055865751284	0.0	0.9722414497628729	-0.9524040130259316	0.0	0.9532638934895984	-0.9655652690865263	0.0	0.8521158856792328	-0.9487281485451291	0.0	0.9007477127511353	-0.463684931146144	0.0	0.8955212425498964	-0.6832274850356319	0.0	0.8825827021667108	-0.8813241355109274	0.0	0.9724952040472966	-0.9117827714047987	0.0	0.9577009851154146	-0.9018300079515317	0.0	0.8552720902875036	-0.912333290882923	0.0	0.918001650070107	-0.1376058258883154	0.0	0.9577443968211288	-0.0007571412847534335	0.0	0.9659124717633604	-0.08485347604282592	0.0	0.8817009165703446	-0.17017619346182877	0.0	1.0450773826538517	-0.12812118077721213	0.0	1.1606083857336278	-0.030791882056902135	0.0	0.9363234167897527	-0.18860362574527645	0.0	1.0006982132992264	-0.3229487156926627	0.0	1.1184662578236115	-0.3592692025977067	0.0
